<?xml version="1.0" encoding="UTF-8" standalone="no"?>
<!-- Created with Inkscape (http://www.inkscape.org/) -->

<svg
   xmlns:dc="http://purl.org/dc/elements/1.1/"
   xmlns:cc="http://creativecommons.org/ns#"
   xmlns:rdf="http://www.w3.org/1999/02/22-rdf-syntax-ns#"
   xmlns:svg="http://www.w3.org/2000/svg"
   xmlns="http://www.w3.org/2000/svg"
   xmlns:sodipodi="http://sodipodi.sourceforge.net/DTD/sodipodi-0.dtd"
   xmlns:inkscape="http://www.inkscape.org/namespaces/inkscape"
   id="svg2"
   version="1.1"
   inkscape:version="0.91 r13725"
   xml:space="preserve"
   width="125"
   height="30"
   viewBox="0 0 125 30"
   sodipodi:docname="VictorianFloral05.svg"><metadata
     id="metadata8"><rdf:RDF><cc:Work
         rdf:about=""><dc:format>image/svg+xml</dc:format><dc:type
           rdf:resource="http://purl.org/dc/dcmitype/StillImage" /><dc:title></dc:title></cc:Work></rdf:RDF></metadata><defs
     id="defs6" /><sodipodi:namedview
     pagecolor="#ffffff"
     bordercolor="#666666"
     borderopacity="1"
     objecttolerance="10"
     gridtolerance="10"
     guidetolerance="10"
     inkscape:pageopacity="0"
     inkscape:pageshadow="2"
     inkscape:window-width="727"
     inkscape:window-height="480"
     id="namedview4"
     showgrid="false"
     inkscape:zoom="3.144"
     inkscape:cx="62.5"
     inkscape:cy="15"
     inkscape:window-x="362"
     inkscape:window-y="204"
     inkscape:window-maximized="0"
     inkscape:current-layer="g10" /><g
     id="g10"
     inkscape:groupmode="layer"
     inkscape:label="ink_ext_XXXXXX"
     transform="matrix(1.25,0,0,-1.25,0,30)"><g
       id="g12"
       transform="scale(0.1,0.1)"><path
         d="m 466.41,78.5781 c 1.828,-6.9062 0.891,-12.6093 7.852,-16.6367 0.308,-0.1523 0.617,-0.3125 0.937,-0.4726 -0.32,-0.1485 -0.629,-0.3477 -0.937,-0.5 -6.961,-4.0274 -6.024,-9.6485 -7.852,-16.6485 6.91,-1.832 11.36,-5.5 18.32,-1.4805 0.309,0.1602 0.622,0.3516 0.891,0.5508 0,-0.3515 -0.031,-0.7109 -0.031,-1.0625 0.031,-8.0078 5.39,-10.039 10.461,-15.1484 5.078,5.0703 10.469,7.1406 10.469,15.1484 0,0.3516 0,0.711 -0.04,1.0625 0.321,-0.1992 0.629,-0.3906 0.899,-0.5508 6.961,-4.0195 11.371,-0.3906 18.359,1.4805 -1.867,6.918 -0.937,12.6211 -7.886,16.6485 -0.313,0.1523 -0.622,0.3515 -0.903,0.5 0.321,0.1601 0.59,0.3203 0.903,0.4726 6.949,4.0274 6.019,9.6484 7.886,16.6367 -6.91,1.8828 -11.398,5.5117 -18.359,1.4922 -0.27,-0.1601 -0.578,-0.3515 -0.899,-0.5508 0.04,0.3516 0.04,0.6993 0.04,1.0508 0,8.0508 -5.348,10.0391 -10.469,15.1602 -5.031,-5.0821 -10.43,-7.1094 -10.43,-15.1602 0,-0.3515 0,-0.6992 0,-1.0508 -0.269,0.1993 -0.582,0.3907 -0.891,0.5899 -6.96,3.9804 -11.371,0.3515 -18.32,-1.5313 z m -14.93,8.6016 c 2.821,-10.3594 1.411,-18.9492 11.879,-24.9609 0.43,-0.2774 0.903,-0.5079 1.371,-0.75 -0.468,-0.2305 -0.941,-0.5 -1.41,-0.7383 -10.429,-6.0508 -9.019,-14.5313 -11.84,-25 10.399,-2.7696 17.11,-8.2422 27.579,-2.2305 0.429,0.2813 0.902,0.5508 1.332,0.8203 0,-0.5 -0.039,-1.0508 -0.039,-1.5586 0,-12.0703 8.046,-15.082 15.699,-22.77342 7.621,7.62112 15.711,10.70312 15.711,22.77342 0,0.5078 0,1.0196 -0.043,1.5586 0.472,-0.2695 0.902,-0.539 1.371,-0.8203 10.43,-6.0508 17.07,-0.5781 27.531,2.2305 -2.769,10.3906 -1.402,18.9492 -11.832,24.9609 -0.469,0.2774 -0.937,0.5078 -1.367,0.7774 0.43,0.2421 0.898,0.4726 1.367,0.75 10.43,6.0117 9.02,14.4921 11.832,24.9609 -10.391,2.8086 -17.101,8.2812 -27.531,2.2187 -0.469,-0.2265 -0.899,-0.5078 -1.328,-0.8203 0,0.5508 0,1.0625 0,1.6016 0,12.0393 -8.012,15.0823 -15.672,22.7423 -7.61,-7.621 -15.738,-10.703 -15.738,-22.7423 0,-0.5391 0.039,-1.0508 0.039,-1.5586 -0.43,0.2695 -0.903,0.5508 -1.332,0.7773 -10.469,6.0625 -17.071,0.5899 -27.579,-2.2187"
         style="fill:#050505;fill-opacity:1;fill-rule:evenodd;stroke:none"
         id="path14"
         inkscape:connector-curvature="0" /><path
         d="m 496.051,71.6289 c 5.629,0 10.16,-4.5703 10.16,-10.1601 0,-5.6172 -4.531,-10.1485 -10.16,-10.1485 -5.582,0 -10.153,4.5313 -10.153,10.1485 0,5.5898 4.571,10.1601 10.153,10.1601"
         style="fill:#050505;fill-opacity:1;fill-rule:evenodd;stroke:none"
         id="path16"
         inkscape:connector-curvature="0" /><path
         d="M 375.43,121.469 C 362.34,136.75 345.309,145.891 324.41,148.27 274.488,153.93 239.488,128.93 205.859,97.1406 173.441,66.5117 142.34,27.9219 83.5508,21.75 63.3594,19.6406 38.0508,25.8086 23.7109,41 17.0703,48.0703 13.0508,57.2891 12.2305,66.3203 10.7813,81.6289 21.7617,101.238 40.7383,95.0703 48.0508,92.7188 53.7891,84.75 54.2617,77.1797 57.3008,85.1094 53.7109,97.8398 41.8398,102.84 32.7695,106.629 21.6016,105.07 13.5508,99.0117 4.17969,91.9414 -1.25,78.9688 0.230469,64.3594 3.71094,30.0313 55.9805,11.5117 84.3008,14.4805 145.551,20.9297 181.879,55.2617 215.16,86.7109 247.461,117.25 276.84,144.988 323.398,139.719 342.34,137.57 358.121,128.539 368.949,116.121 391.801,89.8711 388.281,41.0391 361.602,28.2695 394.77,38.9297 399.879,93 375.43,121.469"
         style="fill:#050505;fill-opacity:1;fill-rule:nonzero;stroke:none"
         id="path18"
         inkscape:connector-curvature="0" /><path
         d="m 405.738,60.3008 c 15.633,21.7578 25.942,33.8281 47.114,36.5195 11.367,1.4492 20.16,-3.1601 28.988,-9.4101 C 479.301,93.3906 468.32,105.77 451.91,104.09 428.98,101.789 417.109,87.0195 400.59,64.3984 385.391,43.6211 370,28.6211 351.328,25.1094 c -13.207,-2.5 -31.168,0.582 -45.668,8.4687 15.078,-14.5664 32.309,-16.0078 45.16,-15.1093 20.981,1.4804 37.418,17.4218 54.918,41.832"
         style="fill:#050505;fill-opacity:1;fill-rule:nonzero;stroke:none"
         id="path20"
         inkscape:connector-curvature="0" /><path
         d="m 341.949,53.5 c 9.422,13.3203 10.16,29.9688 3.992,43.5586 -7.113,15.6604 -23.132,27.6604 -40.39,31.1714 -33.789,6.879 -56.41,-10.98 -81.332,-30.6987 -6.52,-5.1602 -13.199,-10.4297 -20.27,-15.4297 l -0.551,-6.4922 c 8.442,5.75 16.293,11.9219 23.903,17.9687 23.988,18.9529 45.711,36.1719 77.23,29.7739 15.629,-3.211 30.27,-13.872 36.797,-27.9731 5.551,-12.1094 4.922,-26.9883 -3.359,-39.0195 C 331.988,47.6797 321.09,41 310.039,41.9805 c -7.187,0.6289 -14.527,7.7695 -17.848,13.8711 0,-6.5313 -0.312,-11.9922 5.778,-15.3516 3.511,-1.9219 7.422,-3.1719 11.64,-3.5586 12.852,-1.1328 25.313,6.5977 32.34,16.5586"
         style="fill:#050505;fill-opacity:1;fill-rule:nonzero;stroke:none"
         id="path22"
         inkscape:connector-curvature="0" /><path
         d="m 120,131.59 c 8.199,4.57 16.52,6.129 24.34,5 10.89,-1.602 20.539,-8.121 26.68,-17.149 5.82,-8.55 8.781,-19.5699 7.07,-31.4019 -4.07,-28.25 -24.301,-40.8594 -46.641,-54.7696 -5.828,-3.6289 -11.801,-7.3789 -17.66,-11.4804 l -5.238,1.3593 c 6.84,5 13.871,9.3829 20.711,13.6407 21.437,13.3515 40.937,25.5 44.718,51.8711 1.571,10.7382 -1.128,20.6988 -6.402,28.4418 -5.508,8.039 -14.098,13.976 -23.867,15.347 -7.66,1.129 -16.133,-0.429 -24.063,-5.98 -3.558,-2.5 -6.41,-6.598 -7.539,-10.821 -2.73,-10.539 5.86,-20.8199 12.422,-24.0191 L 126.879,88 123.48,87.6094 c -11.839,4.1015 -18.71,16.3596 -15.39,29.1016 1.601,6.09 6.32,11.789 11.91,14.879"
         style="fill:#050505;fill-opacity:1;fill-rule:nonzero;stroke:none"
         id="path24"
         inkscape:connector-curvature="0" /><path
         d="m 399.488,56.5508 c -0.508,-0.9024 -1.636,-1.1719 -2.539,-0.6211 -0.859,0.5391 -1.129,1.6797 -0.621,2.5391 5.781,9.4921 11.684,19.4531 15.742,30.6601 4.02,11.1331 6.25,23.5121 4.692,37.9731 -0.59,5.429 -2.543,12.418 -5.782,18.589 -2.539,4.879 -5.902,9.18 -9.89,11.598 -4.211,2.582 -9.02,3.602 -13.36,3.09 -8.351,-1.02 -15.39,-8.91 -12.218,-17.539 2.258,-6.09 9.367,-9.61 15,-5.66 1.988,1.398 5.039,4.718 6.398,8.511 0.86,-4.019 -1.25,-9.179 -4.289,-11.562 -7.351,-5.699 -17.66,-0.508 -20.59,7.422 -3.98,10.859 4.528,21.211 15.27,22.5 5.16,0.629 10.789,-0.582 15.711,-3.551 4.648,-2.82 8.398,-7.66 11.25,-13.129 3.437,-6.562 5.578,-14.062 6.168,-19.84 1.64,-15.16 -0.66,-28.0896 -4.879,-39.6521 -4.18,-11.5195 -10.16,-21.6797 -16.063,-31.3281"
         style="fill:#050505;fill-opacity:1;fill-rule:nonzero;stroke:none"
         id="path26"
         inkscape:connector-curvature="0" /><path
         d="m 383.09,38.9297 c -0.789,-0.6992 -1.102,-1.5586 -0.391,-2.3789 0.699,-0.7813 1.602,-0.8203 2.379,-0.1211 8.551,7.6992 18.121,15.2422 28.75,21.5312 10.551,6.211 22.731,10.8204 37.774,11.9883 2.418,0.1914 11.449,0.1211 14.179,-0.039 -2.89,2.6992 -9.332,4.2187 -14.492,3.9101 C 435.59,72.8008 422.891,67.7188 411.879,61.2383 400.98,54.7891 391.801,46.7891 383.09,38.9297"
         style="fill:#050505;fill-opacity:1;fill-rule:nonzero;stroke:none"
         id="path28"
         inkscape:connector-curvature="0" /><path
         d="m 163.441,53.3086 c -1.14,-0.8984 -2.82,-0.6992 -3.711,0.4297 -0.902,1.1719 -0.71,2.8515 0.469,3.75 12.531,9.7617 25.5,20.1211 36.602,33.0508 11.051,12.8519 20.308,28.2809 25.578,48.4729 3.793,14.379 3.992,36.019 -5.617,48.398 -4.34,5.551 -10.242,9.34 -16.332,10.86 -11.801,2.968 -25.121,-4.258 -25.27,-17.27 -0.082,-9.289 7.418,-16.359 17.18,-15.191 4.18,0.511 9.14,2.152 13.789,7.73 -1.399,-8.469 -10.149,-12.258 -12.457,-12.848 -12.934,-3.32 -23.942,7.618 -23.832,20.387 0.16,16.371 16.719,26.141 31.879,22.352 7.191,-1.801 14.14,-6.25 19.222,-12.782 10.7,-13.707 10.778,-36.949 6.598,-53.007 -5.551,-21.051 -15.199,-37.18 -26.68,-50.5824 -11.449,-13.2773 -24.648,-23.8281 -37.418,-33.75"
         style="fill:#050505;fill-opacity:1;fill-rule:nonzero;stroke:none"
         id="path30"
         inkscape:connector-curvature="0" /><path
         d="m 212.148,98.6211 c -1.097,-0.9414 -2.699,-0.7813 -3.597,0.3086 -0.891,1.1013 -0.742,2.6993 0.359,3.6013 18.36,15.188 28.82,33.008 39.68,51.481 13.949,23.75 28.558,48.597 61.019,70.898 8.789,6.02 20.469,10.59 32.692,12.461 11.179,1.758 22.777,1.25 33.008,-2.301 10,-3.519 17.461,-10.55 21.839,-18.992 4.653,-8.859 5.864,-19.328 3.051,-28.789 -4.609,-15.348 -20.359,-25.5 -36.219,-20.777 -10.191,3.047 -17.421,11.129 -17.769,22.187 -0.082,3.199 1.211,15.231 11.059,19.102 -4.969,-6.41 -6.098,-14.301 -5.942,-18.942 0.274,-8.828 5.973,-15 14.102,-17.429 13.16,-3.942 26.05,4.648 29.84,17.308 2.46,8.16 1.371,17.231 -2.649,25 -3.832,7.34 -10.32,13.481 -18.992,16.481 -9.41,3.32 -20.149,3.711 -30.539,2.109 C 331.641,230.57 320.66,226.32 312.5,220.691 280.98,199.012 266.68,174.68 253.012,151.43 241.879,132.531 231.172,114.32 212.148,98.6211"
         style="fill:#050505;fill-opacity:1;fill-rule:nonzero;stroke:none"
         id="path32"
         inkscape:connector-curvature="0" /><path
         d="m 495.941,147.371 c 0.579,7.809 -1.14,14.688 -4.73,19.957 -10.699,15.711 -32.66,18.211 -48.012,8.133 -19.609,-12.82 -21.988,-32.27 -24.609,-53.711 -0.66,-5.59 -1.36,-11.328 -2.418,-17.109 l 2.848,-3.442 c 1.332,6.801 2.152,13.551 2.968,20.121 2.5,20.621 4.774,39.328 23.09,51.321 13.551,8.871 33.942,7.078 43.281,-7.18 3.52,-5.352 5.27,-12.313 3.911,-20.121 -0.629,-3.52 -2.86,-7.11 -5.629,-9.41 -3.243,-2.66 -7.192,-3.95 -11.129,-3.828 l 0,-3.403 c 4.718,-0.121 9.449,1.442 13.316,4.61 3.981,3.32 6.762,8.832 7.113,14.062"
         style="fill:#050505;fill-opacity:1;fill-rule:nonzero;stroke:none"
         id="path34"
         inkscape:connector-curvature="0" /><path
         d="m 245.512,144.949 c -0.473,-0.699 -0.282,-1.679 0.468,-2.148 0.661,-0.473 1.641,-0.27 2.11,0.429 5.031,7.7 10.39,15.661 17.34,22.661 6.871,6.949 15.351,13 26.761,16.988 8.079,2.812 20.539,3.98 28.118,-1.02 3.441,-2.218 5.863,-5.468 7.031,-8.898 2.269,-6.641 -1.289,-14.652 -8.789,-15.352 -5.352,-0.468 -9.762,3.512 -9.531,9.211 0.121,2.43 0.781,5.36 3.789,8.289 -4.797,-1.218 -6.598,-6.41 -6.789,-7.781 -1.329,-7.578 5.46,-13.437 12.851,-12.769 9.41,0.863 14.25,10.82 11.359,19.371 -1.359,4.109 -4.25,7.89 -8.242,10.511 -8.398,5.508 -21.789,4.489 -30.816,1.329 -11.871,-4.141 -20.742,-10.469 -27.934,-17.731 -7.148,-7.187 -12.578,-15.277 -17.726,-23.09"
         style="fill:#050505;fill-opacity:1;fill-rule:nonzero;stroke:none"
         id="path36"
         inkscape:connector-curvature="0" /><path
         d="m 45.1602,78.1094 c -0.5508,-3.8203 -2.1914,-6.4805 0.3906,-9.961 0.1094,-0.1484 0.2305,-0.2695 0.3906,-0.4296 -0.2031,0 -0.3906,-0.0391 -0.5898,-0.0782 -4.3321,-0.5 -5.043,-3.5117 -7.461,-6.6015 3.0508,-2.3789 4.5313,-5.1485 8.8282,-4.6485 0.1914,0.0391 0.3906,0.0782 0.582,0.0782 -0.0703,-0.1485 -0.1524,-0.3086 -0.2305,-0.5 -1.7187,-3.9883 0.5508,-6.1407 1.9883,-9.7696 3.6016,1.4414 6.7227,1.3321 8.4414,5.3516 0.0781,0.1601 0.1602,0.3086 0.1992,0.5078 0.1094,-0.1602 0.2305,-0.3086 0.3516,-0.4688 2.6094,-3.4804 5.5781,-2.5781 9.4492,-3.121 0.5508,3.8203 2.2305,6.4804 -0.3906,9.9609 -0.1211,0.1484 -0.2305,0.2695 -0.3477,0.4297 0.1485,0.0312 0.3477,0.0312 0.5391,0.0703 4.3008,0.5117 5.039,3.5195 7.4687,6.6094 -3.0507,2.3828 -4.539,5.1523 -8.8281,4.6406 -0.2031,-0.0391 -0.3906,-0.0391 -0.5898,-0.0703 0.1172,0.1523 0.1992,0.3515 0.2695,0.5 1.6797,4.0312 -0.543,6.1406 -2.0313,9.7695 C 60,78.9297 56.8789,79.0508 55.1602,75.0313 c -0.0821,-0.1602 -0.1211,-0.3125 -0.1993,-0.5118 -0.1211,0.1602 -0.2304,0.3086 -0.3515,0.4688 -2.6211,3.4805 -5.5899,2.582 -9.4492,3.1211 z m -5.5899,7.4609 C 38.75,79.7891 36.25,75.8086 40.1602,70.6094 c 0.1914,-0.2305 0.3515,-0.4688 0.539,-0.6602 -0.2695,-0.039 -0.5781,-0.0781 -0.8594,-0.0781 -6.4804,-0.8203 -7.5703,-5.3125 -11.2109,-9.9609 4.6094,-3.5899 6.8008,-7.7305 13.2813,-6.9493 0.2812,0.0391 0.5898,0.0782 0.8593,0.1094 -0.1484,-0.2695 -0.2695,-0.5 -0.3476,-0.7812 -2.5821,-6.0078 0.7773,-9.2188 3.0078,-14.6797 5.3906,2.1797 10.082,2.0312 12.6601,8.039 0.1094,0.2422 0.1915,0.5118 0.3086,0.7813 0.1524,-0.2305 0.3125,-0.4609 0.5118,-0.6992 C 62.8086,40.5 67.2695,41.8203 73.0898,41 c 0.8204,5.7891 3.3204,9.7695 -0.5898,14.9688 -0.1992,0.2304 -0.3516,0.4609 -0.5508,0.6601 0.2813,0.043 0.5899,0.082 0.8594,0.082 6.4922,0.8204 7.582,5.3477 11.2109,9.961 -4.6093,3.5898 -6.789,7.7265 -13.2812,6.9492 -0.2695,-0.043 -0.5391,-0.082 -0.8164,-0.1211 0.1172,0.2813 0.2383,0.5117 0.3086,0.7891 2.5781,6.0117 -0.7813,9.2109 -3,14.6797 -5.3907,-2.1797 -10.0821,-2.0274 -12.6602,-8 -0.082,-0.2774 -0.1914,-0.5469 -0.3086,-0.8282 -0.1601,0.2383 -0.3125,0.4688 -0.4726,0.711 -3.9493,5.2265 -8.3985,3.8984 -14.2188,4.7187"
         style="fill:#050505;fill-opacity:1;fill-rule:evenodd;stroke:none"
         id="path38"
         inkscape:connector-curvature="0" /><path
         d="m 58.4805,68.3516 c 2.8086,-1.1719 4.0976,-4.4219 2.9297,-7.2305 -1.211,-2.7695 -4.461,-4.1016 -7.2305,-2.8906 -2.8086,1.1679 -4.1016,4.4101 -2.9297,7.2304 1.2109,2.7696 4.4492,4.0977 7.2305,2.8907"
         style="fill:#050505;fill-opacity:1;fill-rule:evenodd;stroke:none"
         id="path40"
         inkscape:connector-curvature="0" /><path
         d="m 267.07,93.6211 c 0.2,-5.8203 -1.601,-10.1914 3.16,-14.6914 0.239,-0.1914 0.469,-0.3906 0.668,-0.5781 -0.277,-0.043 -0.546,-0.1211 -0.82,-0.2422 -6.289,-1.8711 -6.598,-6.5586 -9.379,-11.75 5.199,-2.7813 8.051,-6.4883 14.34,-4.5703 0.27,0.0703 0.551,0.1523 0.82,0.2695 -0.078,-0.2695 -0.16,-0.5469 -0.238,-0.8594 -1.48,-6.3711 2.43,-8.9492 5.551,-13.9804 4.957,3.121 9.648,3.75 11.129,10.1093 0.039,0.2813 0.121,0.5938 0.16,0.8633 0.199,-0.2305 0.43,-0.3906 0.629,-0.6211 4.801,-4.4609 8.98,-2.3906 14.879,-2.1914 -0.199,5.8594 1.601,10.1914 -3.199,14.6914 -0.239,0.1914 -0.43,0.3906 -0.668,0.5781 0.277,0.0821 0.589,0.1211 0.859,0.2422 6.25,1.9102 6.559,6.5586 9.34,11.75 -5.16,2.7813 -8.051,6.4883 -14.34,4.5782 -0.27,-0.0782 -0.551,-0.1602 -0.781,-0.2774 0.039,0.2774 0.121,0.5469 0.199,0.8594 1.48,6.3711 -2.43,8.9883 -5.551,13.9882 -4.957,-3.0898 -9.609,-3.7499 -11.098,-10.1171 -0.07,-0.2813 -0.109,-0.5508 -0.191,-0.8633 -0.199,0.1914 -0.391,0.4297 -0.59,0.6211 -4.801,4.4609 -8.98,2.3906 -14.879,2.1914 z m -10.269,9.6089 c 0.269,-8.7886 -2.391,-15.3511 4.801,-22.0698 0.308,-0.3086 0.628,-0.5899 0.976,-0.8594 -0.43,-0.1211 -0.859,-0.2305 -1.25,-0.3516 -9.449,-2.8476 -9.879,-9.8398 -14.058,-17.6992 7.769,-4.1406 12.109,-9.7187 21.519,-6.8711 0.43,0.1602 0.82,0.2695 1.211,0.4297 -0.121,-0.4297 -0.199,-0.8594 -0.309,-1.25 -2.23,-9.6094 3.629,-13.5195 8.278,-21.0195 7.461,4.6523 14.492,5.5898 16.722,15.1992 0.11,0.4336 0.188,0.8203 0.27,1.25 0.309,-0.3086 0.59,-0.5899 0.898,-0.8985 7.231,-6.7187 13.52,-3.6289 22.34,-3.3203 -0.269,8.7891 2.391,15.3516 -4.801,22.0703 -0.308,0.3086 -0.628,0.5899 -0.937,0.8594 0.391,0.1211 0.82,0.2305 1.25,0.3516 9.41,2.8476 9.84,9.8789 14.019,17.6992 -7.73,4.1406 -12.07,9.7188 -21.519,6.8281 -0.391,-0.0781 -0.82,-0.2265 -1.211,-0.3867 0.121,0.4297 0.23,0.8203 0.309,1.25 2.23,9.6096 -3.59,13.4806 -8.278,21.0196 -7.461,-4.652 -14.492,-5.59 -16.722,-15.199 -0.079,-0.4339 -0.188,-0.8206 -0.231,-1.2503 -0.308,0.3086 -0.629,0.5899 -0.937,0.8985 -7.192,6.7188 -13.481,3.6288 -22.34,3.3198"
         style="fill:#050505;fill-opacity:1;fill-rule:evenodd;stroke:none"
         id="path42"
         inkscape:connector-curvature="0" /><path
         d="m 289.379,82.6094 c 4.492,-1.0586 7.262,-5.5078 6.211,-10 -1.02,-4.461 -5.512,-7.2305 -9.969,-6.2188 -4.449,1.0586 -7.262,5.5078 -6.211,10 1.059,4.461 5.512,7.2305 9.969,6.2188"
         style="fill:#050505;fill-opacity:1;fill-rule:evenodd;stroke:none"
         id="path44"
         inkscape:connector-curvature="0" /><path
         d="m 74.9219,109.398 c 3.5195,5.743 3.9062,10.204 11.8789,13.911 8,3.632 16.2892,4.101 22.2192,1.761 -2.071,-6.019 -7.848,-12.031 -15.8208,-15.711 -8,-3.668 -11.6797,-1.007 -18.2773,0.039"
         style="fill:#050505;fill-opacity:1;fill-rule:evenodd;stroke:none"
         id="path46"
         inkscape:connector-curvature="0" /><path
         d="m 91.1289,147.328 c 6.4102,2.152 9.5311,5.352 18.0121,3.094 8.519,-2.274 15.199,-7.192 18.281,-12.781 -5.473,-3.321 -13.75,-4.25 -22.223,-1.993 -8.4802,2.274 -9.6482,6.641 -14.0701,11.68"
         style="fill:#050505;fill-opacity:1;fill-rule:evenodd;stroke:none"
         id="path48"
         inkscape:connector-curvature="0" /><path
         d="m 127.07,168.27 c 6.328,-2.192 10.782,-1.598 16.09,-8.59 5.32,-7.039 7.5,-15.039 6.488,-21.328 -6.328,0.738 -13.398,5.078 -18.707,12.07 -5.281,7.027 -3.519,11.207 -3.871,17.848"
         style="fill:#050505;fill-opacity:1;fill-rule:evenodd;stroke:none"
         id="path50"
         inkscape:connector-curvature="0" /><path
         d="m 454.648,132.762 c 5.153,4.297 6.911,8.437 15.661,9.379 8.75,0.929 16.761,-1.25 21.64,-5.352 -3.898,-5.039 -11.25,-8.91 -20,-9.891 -8.75,-0.929 -11.398,2.782 -17.301,5.864"
         style="fill:#050505;fill-opacity:1;fill-rule:evenodd;stroke:none"
         id="path52"
         inkscape:connector-curvature="0" /><path
         d="m 156.988,97.3711 c -4.648,-4.8828 -5.937,-9.1797 -14.488,-11.0898 -8.59,-1.961 -16.801,-0.6719 -22.109,2.8906 3.281,5.4297 10.199,10.1172 18.75,12.0271 8.589,1.949 11.64,-1.449 17.847,-3.8279"
         style="fill:#050505;fill-opacity:1;fill-rule:evenodd;stroke:none"
         id="path54"
         inkscape:connector-curvature="0" /><path
         d="m 525.738,78.5781 c -1.828,-6.9062 -0.937,-12.6093 -7.886,-16.6367 -0.313,-0.1523 -0.582,-0.3125 -0.903,-0.4726 0.321,-0.1485 0.59,-0.3477 0.903,-0.5 6.949,-4.0274 6.019,-9.6485 7.886,-16.6485 -6.91,-1.832 -11.398,-5.5 -18.359,-1.4805 -0.27,0.1602 -0.578,0.3516 -0.859,0.5508 0,-0.3515 0,-0.7109 0,-1.0625 0,-8.0078 -5.348,-10.039 -10.469,-15.1484 -5.031,5.0703 -10.43,7.1406 -10.43,15.1484 0,0.3516 0,0.711 0,1.0625 -0.269,-0.1992 -0.582,-0.3906 -0.891,-0.5508 -6.96,-4.0195 -11.371,-0.3906 -18.32,1.4805 1.828,6.918 0.891,12.6211 7.852,16.6485 0.308,0.1523 0.617,0.3515 0.937,0.5 -0.32,0.1601 -0.629,0.3203 -0.937,0.4726 -6.961,4.0274 -6.024,9.6484 -7.852,16.6367 6.91,1.8828 11.36,5.5117 18.32,1.4922 0.309,-0.1601 0.622,-0.3515 0.891,-0.5508 0,0.3516 -0.031,0.6993 -0.031,1.0508 0,8.0508 5.351,10.0391 10.461,15.1602 5.078,-5.0821 10.469,-7.1094 10.469,-15.1602 0,-0.3515 0,-0.6992 -0.04,-1.0508 0.321,0.1993 0.629,0.3907 0.899,0.5899 6.961,3.9804 11.371,0.3515 18.359,-1.5313 z m 14.883,8.6016 c -2.769,-10.3594 -1.402,-18.9492 -11.832,-24.9609 -0.469,-0.2774 -0.937,-0.5079 -1.367,-0.75 0.43,-0.2305 0.898,-0.5 1.367,-0.7383 10.43,-6.0508 9.02,-14.5313 11.832,-25 C 530.23,32.9609 523.52,27.4883 513.09,33.5 c -0.469,0.2813 -0.899,0.5508 -1.328,0.8203 0,-0.5 0,-1.0508 0,-1.5586 0,-12.0703 -8.012,-15.082 -15.672,-22.77342 -7.61,7.62112 -15.738,10.70312 -15.738,22.77342 0,0.5078 0.039,1.0196 0.039,1.5586 -0.43,-0.2695 -0.86,-0.539 -1.332,-0.8203 -10.43,-6.0508 -17.071,-0.5781 -27.539,2.2305 2.781,10.3906 1.41,18.9492 11.839,24.9609 0.43,0.2774 0.903,0.5078 1.371,0.7774 -0.468,0.2421 -0.941,0.4726 -1.371,0.75 -10.468,6.0117 -9.058,14.4921 -11.839,24.9609 10.359,2.8086 17.07,8.2812 27.539,2.2187 0.429,-0.2265 0.902,-0.5078 1.332,-0.8203 0,0.5508 -0.039,1.0625 -0.039,1.6016 0,12.0393 8.046,15.0823 15.699,22.7423 7.621,-7.621 15.711,-10.703 15.711,-22.7423 0,-0.5391 0,-1.0508 0,-1.5586 0.429,0.2695 0.859,0.5508 1.328,0.7773 10.43,6.0625 17.07,0.5899 27.531,-2.2187"
         style="fill:#050505;fill-opacity:1;fill-rule:evenodd;stroke:none"
         id="path56"
         inkscape:connector-curvature="0" /><path
         d="m 496.051,71.6289 c -5.582,0 -10.153,-4.5703 -10.153,-10.1601 0,-5.6172 4.571,-10.1485 10.153,-10.1485 5.629,0 10.199,4.5313 10.199,10.1485 0,5.5898 -4.57,10.1601 -10.199,10.1601"
         style="fill:#050505;fill-opacity:1;fill-rule:evenodd;stroke:none"
         id="path58"
         inkscape:connector-curvature="0" /><path
         d="m 616.719,121.469 c 13.082,15.281 30.082,24.422 51.011,26.801 49.891,5.66 84.93,-19.34 118.559,-51.1294 32.383,-30.6289 63.512,-69.2187 122.262,-75.3906 20.199,-2.1094 45.551,4.0586 59.847,19.25 6.68,7.0703 10.661,16.2891 11.524,25.3203 1.449,15.3086 -9.57,34.9177 -28.551,28.75 -7.269,-2.3515 -13.051,-10.3203 -13.48,-17.8906 -3.09,7.9297 0.55,20.6601 12.379,25.6603 9.07,3.789 20.281,2.23 28.281,-3.8283 9.379,-7.0703 14.808,-20.0429 13.328,-34.6523 C 988.398,30.0313 936.129,11.5117 907.809,14.4805 846.602,20.9297 810.27,55.2617 776.988,86.7109 744.648,117.25 715.309,144.988 668.75,139.719 649.77,137.57 633.98,128.539 623.199,116.121 600.352,89.8711 603.828,41.0391 630.551,28.2695 597.379,38.9297 592.27,93 616.719,121.469"
         style="fill:#050505;fill-opacity:1;fill-rule:nonzero;stroke:none"
         id="path60"
         inkscape:connector-curvature="0" /><path
         d="m 586.371,60.3008 c -15.59,21.7578 -25.902,33.8281 -47.109,36.5195 -11.332,1.4492 -20.16,-3.1601 -28.953,-9.4101 2.543,5.9804 13.519,18.3598 29.921,16.6798 22.93,-2.301 34.809,-17.0705 51.329,-39.6916 15.203,-20.7773 30.55,-35.7773 49.261,-39.289 13.16,-2.5 31.129,0.582 45.66,8.4687 -15.07,-14.5664 -32.339,-16.0078 -45.191,-15.1093 -20.98,1.4804 -37.418,17.4218 -54.918,41.832"
         style="fill:#050505;fill-opacity:1;fill-rule:nonzero;stroke:none"
         id="path62"
         inkscape:connector-curvature="0" /><path
         d="m 650.199,53.5 c -9.461,13.3203 -10.199,29.9688 -4.027,43.5586 7.148,15.6604 23.168,27.6604 40.43,31.1714 33.789,6.879 56.41,-10.98 81.289,-30.6987 6.519,-5.1602 13.199,-10.4297 20.269,-15.4297 l 0.59,-6.4922 c -8.48,5.75 -16.289,11.9219 -23.949,17.9687 -23.942,18.9529 -45.699,36.1719 -77.223,29.7739 -15.59,-3.211 -30.277,-13.872 -36.758,-27.9731 -5.59,-12.1094 -4.922,-26.9883 3.36,-39.0195 5.98,-8.6797 16.871,-15.3594 27.929,-14.3789 7.153,0.6289 14.532,7.7695 17.852,13.8711 0,-6.5313 0.309,-11.9922 -5.781,-15.3516 -3.52,-1.9219 -7.461,-3.1719 -11.641,-3.5586 -12.848,-1.1328 -25.309,6.5977 -32.34,16.5586"
         style="fill:#050505;fill-opacity:1;fill-rule:nonzero;stroke:none"
         id="path64"
         inkscape:connector-curvature="0" /><path
         d="m 872.109,131.59 c -8.199,4.57 -16.488,6.129 -24.3,5 -10.899,-1.602 -20.539,-8.121 -26.719,-17.149 -5.82,-8.55 -8.75,-19.5699 -7.07,-31.4019 4.07,-28.25 24.339,-40.8594 46.64,-54.7696 5.86,-3.6289 11.801,-7.3789 17.66,-11.4804 l 5.231,1.3593 c -6.789,5 -13.821,9.3829 -20.699,13.6407 -21.442,13.3515 -40.942,25.5 -44.731,51.8711 -1.519,10.7382 1.141,20.6988 6.41,28.4418 5.508,8.039 14.098,13.976 23.867,15.347 7.692,1.129 16.172,-0.429 24.063,-5.98 3.59,-2.5 6.449,-6.598 7.539,-10.821 2.77,-10.539 -5.82,-20.8199 -12.379,-24.0191 L 865.23,88 l 3.442,-0.3906 c 11.84,4.1015 18.668,16.3596 15.348,29.1016 -1.598,6.09 -6.29,11.789 -11.911,14.879"
         style="fill:#050505;fill-opacity:1;fill-rule:nonzero;stroke:none"
         id="path66"
         inkscape:connector-curvature="0" /><path
         d="m 592.621,56.5508 c 0.539,-0.9024 1.68,-1.1719 2.539,-0.6211 0.891,0.5391 1.168,1.6797 0.621,2.5391 -5.742,9.4921 -11.64,19.4531 -15.703,30.6601 -4.027,11.1331 -6.25,23.5121 -4.726,37.9731 0.589,5.429 2.578,12.418 5.777,18.589 2.582,4.879 5.941,9.18 9.922,11.598 4.219,2.582 8.988,3.602 13.328,3.09 8.351,-1.02 15.422,-8.91 12.223,-17.539 -2.223,-6.09 -9.372,-9.61 -14.961,-5.66 -1.993,1.398 -5.039,4.718 -6.411,8.511 -0.851,-4.019 1.219,-9.179 4.258,-11.562 7.391,-5.699 17.703,-0.508 20.633,7.422 3.981,10.859 -4.57,21.211 -15.281,22.5 -5.149,0.629 -10.781,-0.582 -15.699,-3.551 -4.653,-2.82 -8.442,-7.66 -11.289,-13.129 -3.442,-6.562 -5.551,-14.062 -6.172,-19.84 -1.602,-15.16 0.699,-28.0896 4.879,-39.6521 4.179,-11.5195 10.203,-21.6797 16.062,-31.3281"
         style="fill:#050505;fill-opacity:1;fill-rule:nonzero;stroke:none"
         id="path68"
         inkscape:connector-curvature="0" /><path
         d="m 609.059,38.9297 c 0.781,-0.6992 1.101,-1.5586 0.39,-2.3789 -0.699,-0.7813 -1.597,-0.8203 -2.379,-0.1211 -8.59,7.6992 -18.16,15.2422 -28.75,21.5312 -10.59,6.211 -22.769,10.8204 -37.769,11.9883 -2.461,0.1914 -11.492,0.1211 -14.18,-0.039 2.891,2.6992 9.328,4.2187 14.449,3.9101 15.739,-1.0195 28.442,-6.1015 39.41,-12.582 10.942,-6.4492 20.122,-14.4492 28.829,-22.3086"
         style="fill:#050505;fill-opacity:1;fill-rule:nonzero;stroke:none"
         id="path70"
         inkscape:connector-curvature="0" /><path
         d="m 828.672,53.3086 c 1.168,-0.8984 2.848,-0.6992 3.707,0.4297 0.941,1.1719 0.742,2.8515 -0.43,3.75 -12.539,9.7617 -25.5,20.1211 -36.64,33.0508 -11.008,12.8519 -20.27,28.2809 -25.579,48.4729 -3.75,14.379 -3.992,36.019 5.661,48.398 4.339,5.551 10.23,9.34 16.328,10.86 11.801,2.968 25.121,-4.258 25.269,-17.27 0.082,-9.289 -7.457,-16.359 -17.187,-15.191 -4.18,0.511 -9.18,2.152 -13.781,7.73 1.402,-8.469 10.109,-12.258 12.46,-12.848 12.891,-3.32 23.942,7.618 23.79,20.387 -0.161,16.371 -16.68,26.141 -31.84,22.352 -7.231,-1.801 -14.141,-6.25 -19.219,-12.782 -10.699,-13.707 -10.82,-36.949 -6.602,-53.007 5.512,-21.051 15.192,-37.18 26.68,-50.5824 11.441,-13.2773 24.652,-23.8281 37.383,-33.75"
         style="fill:#050505;fill-opacity:1;fill-rule:nonzero;stroke:none"
         id="path72"
         inkscape:connector-curvature="0" /><path
         d="m 779.961,98.6211 c 1.09,-0.9414 2.738,-0.7813 3.59,0.3086 0.937,1.1013 0.789,2.6993 -0.313,3.6013 -18.359,15.188 -28.828,33.008 -39.718,51.481 -13.95,23.75 -28.559,48.597 -60.981,70.898 -8.789,6.02 -20.508,10.59 -32.738,12.461 -11.129,1.758 -22.731,1.25 -33,-2.301 -9.961,-3.519 -17.422,-10.55 -21.84,-18.992 -4.609,-8.859 -5.82,-19.328 -3.012,-28.789 4.571,-15.348 20.352,-25.5 36.211,-20.777 10.199,3.047 17.43,11.129 17.738,22.187 0.122,3.199 -1.207,15.231 -11.058,19.102 4.961,-6.41 6.14,-14.301 5.98,-18.942 -0.269,-8.828 -6.019,-15 -14.101,-17.429 -13.199,-3.942 -26.098,4.648 -29.879,17.308 -2.43,8.16 -1.371,17.231 2.691,25 3.789,7.34 10.27,13.481 18.949,16.481 9.411,3.32 20.192,3.711 30.579,2.109 11.453,-1.758 22.39,-6.008 30.589,-11.637 31.524,-21.679 45.821,-46.011 59.493,-69.261 11.089,-18.899 21.8,-37.11 40.82,-52.8089"
         style="fill:#050505;fill-opacity:1;fill-rule:nonzero;stroke:none"
         id="path74"
         inkscape:connector-curvature="0" /><path
         d="m 496.172,147.371 c -0.582,7.809 1.168,14.688 4.726,19.957 10.704,15.711 32.692,18.211 48.051,8.133 19.602,-12.82 21.992,-32.27 24.571,-53.711 0.699,-5.59 1.402,-11.328 2.421,-17.109 l -2.82,-3.442 c -1.359,6.801 -2.18,13.551 -2.961,20.121 -2.5,20.621 -4.808,39.328 -23.09,51.321 -13.55,8.871 -33.949,7.078 -43.32,-7.18 -3.48,-5.352 -5.27,-12.313 -3.871,-20.121 0.59,-3.52 2.851,-7.11 5.633,-9.41 3.199,-2.66 7.187,-3.95 11.09,-3.828 l 0,-3.403 c -4.692,-0.121 -9.454,1.442 -13.282,4.61 -3.98,3.32 -6.761,8.832 -7.148,14.062"
         style="fill:#050505;fill-opacity:1;fill-rule:nonzero;stroke:none"
         id="path76"
         inkscape:connector-curvature="0" /><path
         d="m 746.602,144.949 c 0.468,-0.699 0.277,-1.679 -0.43,-2.148 -0.703,-0.473 -1.641,-0.27 -2.113,0.429 -5.079,7.7 -10.43,15.661 -17.34,22.661 -6.918,6.949 -15.391,13 -26.758,16.988 -8.121,2.812 -20.582,3.98 -28.121,-1.02 -3.442,-2.218 -5.899,-5.468 -7.039,-8.898 -2.262,-6.641 1.289,-14.652 8.75,-15.352 5.359,-0.468 9.808,3.512 9.539,9.211 -0.078,2.43 -0.789,5.36 -3.789,8.289 4.801,-1.218 6.597,-6.41 6.828,-7.781 1.293,-7.578 -5.508,-13.437 -12.848,-12.769 -9.453,0.863 -14.301,10.82 -11.402,19.371 1.359,4.109 4.25,7.89 8.242,10.511 8.43,5.508 21.789,4.489 30.859,1.329 11.872,-4.141 20.739,-10.469 27.93,-17.731 7.11,-7.187 12.57,-15.277 17.692,-23.09"
         style="fill:#050505;fill-opacity:1;fill-rule:nonzero;stroke:none"
         id="path78"
         inkscape:connector-curvature="0" /><path
         d="m 946.949,78.1094 c 0.551,-3.8203 2.231,-6.4805 -0.39,-9.961 -0.11,-0.1484 -0.231,-0.2695 -0.348,-0.4296 0.199,0 0.391,-0.0391 0.551,-0.0782 4.328,-0.5 5.078,-3.5117 7.457,-6.6015 -3.047,-2.3789 -4.489,-5.1485 -8.828,-4.6485 -0.192,0.0391 -0.352,0.0782 -0.551,0.0782 0.082,-0.1485 0.16,-0.3086 0.238,-0.5 1.684,-3.9883 -0.547,-6.1407 -2.027,-9.7696 -3.602,1.4414 -6.723,1.3321 -8.403,5.3516 -0.078,0.1601 -0.16,0.3086 -0.199,0.5078 -0.109,-0.1602 -0.23,-0.3086 -0.347,-0.4688 -2.622,-3.4804 -5.582,-2.5781 -9.454,-3.121 -0.546,3.8203 -2.226,6.4804 0.391,9.9609 0.121,0.1484 0.231,0.2695 0.352,0.4297 -0.192,0.0312 -0.391,0.0312 -0.551,0.0703 -4.328,0.5117 -5.07,3.5195 -7.461,6.6094 3.051,2.3828 4.5,5.1523 8.832,4.6406 0.199,-0.0391 0.348,-0.0391 0.551,-0.0703 -0.082,0.1523 -0.16,0.3515 -0.242,0.5 -1.68,4.0312 0.55,6.1406 2.031,9.7695 3.597,-1.4492 6.719,-1.3281 8.398,-5.3476 0.082,-0.1602 0.16,-0.3125 0.242,-0.5118 0.079,0.1602 0.188,0.3086 0.309,0.4688 2.621,3.4805 5.59,2.582 9.449,3.1211 z m 5.629,7.4609 c 0.82,-5.7812 3.32,-9.7617 -0.629,-14.9609 -0.148,-0.2305 -0.347,-0.4688 -0.5,-0.6602 0.27,-0.039 0.539,-0.0781 0.852,-0.0781 6.488,-0.8203 7.578,-5.3125 11.179,-9.9609 -4.57,-3.5899 -6.761,-7.7305 -13.25,-6.9493 -0.308,0.0391 -0.582,0.0782 -0.851,0.1094 0.109,-0.2695 0.23,-0.5 0.351,-0.7812 2.54,-6.0078 -0.82,-9.2188 -3.011,-14.6797 -5.43,2.1797 -10.117,2.0312 -12.66,8.039 -0.11,0.2422 -0.231,0.5118 -0.309,0.7813 -0.16,-0.2305 -0.352,-0.4609 -0.512,-0.6992 C 929.301,40.5 924.84,41.8203 919.02,41 c -0.782,5.7891 -3.321,9.7695 0.628,14.9688 0.153,0.2304 0.352,0.4609 0.512,0.6601 -0.281,0.043 -0.551,0.082 -0.82,0.082 -6.488,0.8204 -7.621,5.3477 -11.219,9.961 4.578,3.5898 6.801,7.7265 13.289,6.9492 0.27,-0.043 0.539,-0.082 0.82,-0.1211 -0.121,0.2813 -0.242,0.5117 -0.351,0.7891 -2.539,6.0117 0.82,9.2109 3,14.6797 5.43,-2.1797 10.121,-2.0274 12.66,-8 0.121,-0.2774 0.231,-0.5469 0.313,-0.8282 0.199,0.2383 0.347,0.4688 0.507,0.711 3.942,5.2265 8.403,3.8984 14.219,4.7187"
         style="fill:#050505;fill-opacity:1;fill-rule:evenodd;stroke:none"
         id="path80"
         inkscape:connector-curvature="0" /><path
         d="m 933.629,68.3516 c -2.77,-1.1719 -4.098,-4.4219 -2.891,-7.2305 1.172,-2.7695 4.422,-4.1016 7.231,-2.8906 2.769,1.1679 4.101,4.4101 2.89,7.2304 -1.168,2.7696 -4.41,4.0977 -7.23,2.8907"
         style="fill:#050505;fill-opacity:1;fill-rule:evenodd;stroke:none"
         id="path82"
         inkscape:connector-curvature="0" /><path
         d="m 725.078,93.6211 c -0.199,-5.8203 1.602,-10.1914 -3.199,-14.6914 -0.199,-0.1914 -0.43,-0.3906 -0.629,-0.5781 0.27,-0.043 0.551,-0.1211 0.82,-0.2422 6.25,-1.8711 6.559,-6.5586 9.34,-11.75 -5.16,-2.7813 -8.051,-6.4883 -14.301,-4.5703 -0.269,0.0703 -0.589,0.1523 -0.82,0.2695 0.082,-0.2695 0.16,-0.5469 0.191,-0.8594 1.489,-6.3711 -2.378,-8.9492 -5.5,-13.9804 -5,3.121 -9.652,3.75 -11.14,10.1093 -0.07,0.2813 -0.11,0.5938 -0.192,0.8633 -0.199,-0.2305 -0.386,-0.3906 -0.628,-0.6211 -4.758,-4.4609 -8.942,-2.3906 -14.84,-2.1914 0.199,5.8594 -1.602,10.1914 3.199,14.6914 0.199,0.1914 0.43,0.3906 0.633,0.5781 -0.282,0.0821 -0.551,0.1211 -0.821,0.2422 -6.293,1.9102 -6.57,6.5586 -9.339,11.75 5.16,2.7813 8.046,6.4883 14.296,4.5782 0.274,-0.0782 0.551,-0.1602 0.821,-0.2774 -0.078,0.2774 -0.16,0.5469 -0.199,0.8594 -1.481,6.3711 2.39,8.9883 5.511,13.9882 4.957,-3.0898 9.649,-3.7499 11.129,-10.1171 0.078,-0.2813 0.121,-0.5508 0.16,-0.8633 0.2,0.1914 0.43,0.4297 0.629,0.6211 4.801,4.4609 8.981,2.3906 14.879,2.1914 z m 10.274,9.6089 c -0.313,-8.7886 2.378,-15.3511 -4.84,-22.0698 -0.313,-0.3086 -0.633,-0.5899 -0.942,-0.8594 0.43,-0.1211 0.821,-0.2305 1.25,-0.3516 9.41,-2.8476 9.84,-9.8398 14.02,-17.6992 -7.731,-4.1406 -12.07,-9.7187 -21.481,-6.8711 -0.429,0.1602 -0.859,0.2695 -1.25,0.4297 0.121,-0.4297 0.231,-0.8594 0.352,-1.25 2.187,-9.6094 -3.633,-13.5195 -8.32,-21.0195 -7.461,4.6523 -14.493,5.5898 -16.719,15.1992 -0.082,0.4336 -0.152,0.8203 -0.274,1.25 -0.269,-0.3086 -0.589,-0.5899 -0.898,-0.8985 -7.191,-6.7187 -13.48,-3.6289 -22.34,-3.3203 0.309,8.7891 -2.39,15.3516 4.801,22.0703 0.309,0.3086 0.668,0.5899 0.98,0.8594 -0.429,0.1211 -0.863,0.2305 -1.25,0.3516 -9.421,2.8476 -9.89,9.8789 -14.062,17.6992 7.769,4.1406 12.101,9.7188 21.519,6.8281 0.43,-0.0781 0.821,-0.2265 1.211,-0.3867 -0.078,0.4297 -0.199,0.8203 -0.308,1.25 -2.231,9.6096 3.629,13.4806 8.32,21.0196 7.457,-4.652 14.449,-5.59 16.68,-15.199 0.109,-0.4339 0.187,-0.8206 0.269,-1.2503 0.309,0.3086 0.629,0.5899 0.942,0.8985 7.187,6.7188 13.468,3.6288 22.34,3.3198"
         style="fill:#050505;fill-opacity:1;fill-rule:evenodd;stroke:none"
         id="path84"
         inkscape:connector-curvature="0" /><path
         d="m 702.73,82.6094 c -4.449,-1.0586 -7.218,-5.5078 -6.21,-10 1.058,-4.461 5.511,-7.2305 9.96,-6.2188 4.5,1.0586 7.27,5.5078 6.219,10 -1.019,4.461 -5.508,7.2305 -9.969,6.2188"
         style="fill:#050505;fill-opacity:1;fill-rule:evenodd;stroke:none"
         id="path86"
         inkscape:connector-curvature="0" /><path
         d="m 917.23,109.398 c -3.558,5.743 -3.91,10.204 -11.921,13.911 -7.969,3.632 -16.289,4.101 -22.219,1.761 2.109,-6.019 7.851,-12.031 15.859,-15.711 8,-3.668 11.672,-1.007 18.281,0.039"
         style="fill:#050505;fill-opacity:1;fill-rule:evenodd;stroke:none"
         id="path88"
         inkscape:connector-curvature="0" /><path
         d="m 900.98,147.328 c -6.371,2.152 -9.5,5.352 -18.011,3.094 -8.481,-2.274 -15.16,-7.192 -18.239,-12.781 5.469,-3.321 13.711,-4.25 22.18,-1.993 8.52,2.274 9.649,6.641 14.07,11.68"
         style="fill:#050505;fill-opacity:1;fill-rule:evenodd;stroke:none"
         id="path90"
         inkscape:connector-curvature="0" /><path
         d="m 865.078,168.27 c -6.367,-2.192 -10.816,-1.598 -16.129,-8.59 -5.277,-7.039 -7.5,-15.039 -6.488,-21.328 6.328,0.738 13.437,5.078 18.711,12.07 5.308,7.027 3.519,11.207 3.906,17.848"
         style="fill:#050505;fill-opacity:1;fill-rule:evenodd;stroke:none"
         id="path92"
         inkscape:connector-curvature="0" /><path
         d="m 537.5,132.762 c -5.16,4.297 -6.949,8.437 -15.66,9.379 -8.75,0.929 -16.762,-1.25 -21.641,-5.352 3.86,-5.039 11.25,-8.91 19.961,-9.891 8.75,-0.929 11.442,2.782 17.34,5.864"
         style="fill:#050505;fill-opacity:1;fill-rule:evenodd;stroke:none"
         id="path94"
         inkscape:connector-curvature="0" /><path
         d="m 835.121,97.3711 c 4.649,-4.8828 5.93,-9.1797 14.527,-11.0898 8.551,-1.961 16.801,-0.6719 22.114,2.8906 -3.321,5.4297 -10.203,10.1172 -18.75,12.0271 -8.602,1.949 -11.641,-1.449 -17.891,-3.8279"
         style="fill:#050505;fill-opacity:1;fill-rule:evenodd;stroke:none"
         id="path96"
         inkscape:connector-curvature="0" /></g></g></svg>